<svg width="1200" height="1800" xmlns="http://www.w3.org/2000/svg">
  <defs>
    <linearGradient id="bgGrad" x1="0%" y1="0%" x2="0%" y2="100%">
      <stop offset="0%" style="stop-color:#f0f4f8;stop-opacity:1" />
      <stop offset="100%" style="stop-color:#d9e2ec;stop-opacity:1" />
    </linearGradient>
    
    <linearGradient id="cardGrad" x1="0%" y1="0%" x2="100%" y2="100%">
      <stop offset="0%" style="stop-color:#ffffff;stop-opacity:0.95" />
      <stop offset="100%" style="stop-color:#f8fafc;stop-opacity:0.98" />
    </linearGradient>
    
    <linearGradient id="barGrad" x1="0%" y1="100%" x2="0%" y2="0%">
      <stop offset="0%" style="stop-color:#3b82f6;stop-opacity:1" />
      <stop offset="100%" style="stop-color:#06b6d4;stop-opacity:1" />
    </linearGradient>
    
    <linearGradient id="titleGrad" x1="0%" y1="0%" x2="100%" y2="0%">
      <stop offset="0%" style="stop-color:#1e40af;stop-opacity:1" />
      <stop offset="100%" style="stop-color:#0891b2;stop-opacity:1" />
    </linearGradient>
    
    <filter id="shadow" x="-20%" y="-20%" width="140%" height="140%">
      <feGaussianBlur in="SourceAlpha" stdDeviation="4"/>
      <feOffset dx="2" dy="4" result="offsetblur"/>
      <feComponentTransfer>
        <feFuncA type="linear" slope="0.15"/>
      </feComponentTransfer>
      <feMerge>
        <feMergeNode/>
        <feMergeNode in="SourceGraphic"/>
      </feMerge>
    </filter>
  </defs>
  
  <rect width="1200" height="1800" fill="url(#bgGrad)"/>
  
  <path d="M0,200 Q300,150 600,200 T1200,200 L1200,1800 L0,1800 Z" fill="#e2e8f0" opacity="0.4"/>
  <path d="M0,400 Q300,350 600,400 T1200,400 L1200,1800 L0,1800 Z" fill="#cbd5e0" opacity="0.3"/>
  <path d="M0,1400 Q300,1350 600,1400 T1200,1400 L1200,1800 L0,1800 Z" fill="#e2e8f0" opacity="0.4"/>
  
  <text x="600" y="80" font-family="system-ui, -apple-system, BlinkMacSystemFont, sans-serif" font-size="48" font-weight="700" text-anchor="middle" fill="url(#titleGrad)">Japan at a glance</text>
  
  <g transform="translate(60, 140)">
    <rect width="540" height="380" rx="16" fill="url(#cardGrad)" filter="url(#shadow)"/>
    <text x="270" y="40" font-family="system-ui, sans-serif" font-size="20" font-weight="600" text-anchor="middle" fill="#334155">Major Cities</text>
    
    <g transform="translate(120, 60) scale(0.8)">
      <path d="M 180,20 L 220,15 L 240,40 L 230,70 L 200,75 L 170,60 Z" fill="#94a3b8" stroke="#64748b" stroke-width="2"/>
      <path d="M 170,80 L 200,75 L 220,90 L 210,150 L 190,200 L 160,220 L 140,210 L 130,180 L 150,120 Z" fill="#cbd5e1" stroke="#64748b" stroke-width="2"/>
      <path d="M 140,230 L 160,225 L 155,245 L 135,240 Z" fill="#94a3b8" stroke="#64748b" stroke-width="2"/>
      <path d="M 110,250 L 140,245 L 135,280 L 115,290 L 100,270 Z" fill="#94a3b8" stroke="#64748b" stroke-width="2"/>
      
      <circle cx="195" cy="140" r="6" fill="#ef4444"/>
      <text x="195" y="130" font-family="system-ui, sans-serif" font-size="14" font-weight="600" text-anchor="middle" fill="#1e293b">Tokyo</text>
      
      <circle cx="190" cy="155" r="5" fill="#f97316"/>
      <text x="190" y="170" font-family="system-ui, sans-serif" font-size="12" text-anchor="middle" fill="#475569">Yokohama</text>
      
      <circle cx="175" cy="165" r="5" fill="#8b5cf6"/>
      <text x="175" y="155" font-family="system-ui, sans-serif" font-size="12" text-anchor="middle" fill="#475569">Nagoya</text>
      
      <circle cx="155" cy="185" r="5" fill="#10b981"/>
      <text x="155" y="175" font-family="system-ui, sans-serif" font-size="12" text-anchor="middle" fill="#475569">Osaka</text>
    </g>
    
    <g transform="translate(400, 100)">
      <circle cx="0" cy="0" r="5" fill="#ef4444"/><text x="12" y="4" font-family="system-ui, sans-serif" font-size="12" fill="#475569">Capital</text>
      <circle cx="0" cy="20" r="5" fill="#f97316"/><text x="12" y="24" font-family="system-ui, sans-serif" font-size="12" fill="#475569">Yokohama</text>
      <circle cx="0" cy="40" r="5" fill="#8b5cf6"/><text x="12" y="44" font-family="system-ui, sans-serif" font-size="12" fill="#475569">Nagoya</text>
      <circle cx="0" cy="60" r="5" fill="#10b981"/><text x="12" y="64" font-family="system-ui, sans-serif" font-size="12" fill="#475569">Osaka</text>
    </g>
  </g>
  
  <g transform="translate(620, 140)">
    <rect width="520" height="380" rx="16" fill="url(#cardGrad)" filter="url(#shadow)"/>
    <text x="30" y="50" font-family="system-ui, sans-serif" font-size="20" font-weight="600" fill="#334155">About Japan</text>
    <foreignObject x="30" y="70" width="460" height="280">
      <div xmlns="http://www.w3.org/1999/xhtml" style="font-family: system-ui, -apple-system, sans-serif; font-size: 15px; line-height: 1.6; color: #475569;">
        Japan is an island nation in East Asia comprising four main islands—Honshu, Hokkaido, Kyushu, and Shikoku—along with nearly 7,000 smaller islands. Spanning approximately 377,975 square kilometers, it features diverse landscapes from tropical beaches to alpine peaks.
        <br/><br/>
        With a population exceeding 123 million, Japan harmoniously blends millennia-old traditions with pioneering technology. The constitutional monarchy maintains the Emperor as ceremonial head of state while governance operates through a parliamentary system led by a Prime Minister.
      </div>
    </foreignObject>
  </g>
  
  <g transform="translate(60, 540)">
    <rect width="1080" height="100" rx="12" fill="url(#cardGrad)" filter="url(#shadow)"/>
    <text x="540" y="35" font-family="system-ui, sans-serif" font-size="16" font-weight="600" text-anchor="middle" fill="#334155">Economic Overview</text>
    <foreignObject x="40" y="50" width="1000" height="50">
      <div xmlns="http://www.w3.org/1999/xhtml" style="font-family: system-ui, sans-serif; font-size: 14px; line-height: 1.5; color: #64748b; text-align: center;">
        Japan maintains its position as the world's third-largest economy, characterized by advanced manufacturing, technological innovation, and significant global trade relationships, despite recent demographic challenges and currency fluctuations affecting nominal valuations.
      </div>
    </foreignObject>
  </g>
  
  <g transform="translate(60, 660)">
    <rect width="360" height="420" rx="16" fill="url(#cardGrad)" filter="url(#shadow)"/>
    <text x="30" y="50" font-family="system-ui, sans-serif" font-size="20" font-weight="600" fill="#334155">Economic Trends</text>
    <foreignObject x="30" y="70" width="300" height="320">
      <div xmlns="http://www.w3.org/1999/xhtml" style="font-family: system-ui, sans-serif; font-size: 14px; line-height: 1.6; color: #475569;">
        Japan's nominal GDP peaked in 2019 at $5.12 trillion before experiencing volatility from global economic shifts and yen depreciation against the dollar.
        <br/><br/>
        The decline to $4.03 trillion in 2024 primarily reflects exchange rate movements rather than fundamental economic contraction. Japan continues dominating global markets in automotive manufacturing, robotics, precision machinery, and electronics.
        <br/><br/>
        <strong>Key Metrics:</strong><br/>
        • Peak GDP: 2019 ($5.12T)<br/>
        • 2024 GDP: $4.03T<br/>
        • Decade Average: $4.71T
      </div>
    </foreignObject>
  </g>
  
  <g transform="translate(440, 660)">
    <rect width="700" height="420" rx="16" fill="url(#cardGrad)" filter="url(#shadow)"/>
    <text x="350" y="40" font-family="system-ui, sans-serif" font-size="20" font-weight="600" text-anchor="middle" fill="#334155">Nominal GDP (2015–2024)</text>
    <text x="350" y="65" font-family="system-ui, sans-serif" font-size="14" fill="#64748b" text-anchor="middle">Current US$ Trillions</text>
    
    <g transform="translate(60, 90)">
      <line x1="0" y1="0" x2="0" y2="280" stroke="#cbd5e1" stroke-width="2"/>
      <line x1="0" y1="280" x2="580" y2="280" stroke="#cbd5e1" stroke-width="2"/>
      
      <line x1="0" y1="224" x2="580" y2="224" stroke="#e2e8f0" stroke-width="1"/>
      <line x1="0" y1="168" x2="580" y2="168" stroke="#e2e8f0" stroke-width="1"/>
      <line x1="0" y1="112" x2="580" y2="112" stroke="#e2e8f0" stroke-width="1"/>
      <line x1="0" y1="56" x2="580" y2="56" stroke="#e2e8f0" stroke-width="1"/>
      
      <text x="-10" y="284" font-family="system-ui, sans-serif" font-size="12" text-anchor="end" fill="#64748b">0</text>
      <text x="-10" y="228" font-family="system-ui, sans-serif" font-size="12" text-anchor="end" fill="#64748b">1</text>
      <text x="-10" y="172" font-family="system-ui, sans-serif" font-size="12" text-anchor="end" fill="#64748b">2</text>
      <text x="-10" y="116" font-family="system-ui, sans-serif" font-size="12" text-anchor="end" fill="#64748b">3</text>
      <text x="-10" y="60" font-family="system-ui, sans-serif" font-size="12" text-anchor="end" fill="#64748b">4</text>
      <text x="-10" y="20" font-family="system-ui, sans-serif" font-size="12" text-anchor="end" fill="#64748b">5</text>
      
      <rect x="20" y="41" width="40" height="239" fill="url(#barGrad)" rx="4"/>
      <text x="40" y="295" font-family="system-ui, sans-serif" font-size="11" text-anchor="middle" fill="#475569">2015</text>
      <text x="40" y="30" font-family="system-ui, sans-serif" font-size="11" text-anchor="middle" fill="#334155" font-weight="600">4.44</text>
      
      <rect x="75" y="10" width="40" height="270" fill="url(#barGrad)" rx="4"/>
      <text x="95" y="295" font-family="system-ui, sans-serif" font-size="11" text-anchor="middle" fill="#475569">2016</text>
      <text x="95" y="-5" font-family="system-ui, sans-serif" font-size="11" text-anchor="middle" fill="#334155" font-weight="600">5.00</text>
      
      <rect x="130" y="14" width="40" height="266" fill="url(#barGrad)" rx="4"/>
      <text x="150" y="295" font-family="system-ui, sans-serif" font-size="11" text-anchor="middle" fill="#475569">2017</text>
      <text x="150" y="4" font-family="system-ui, sans-serif" font-size="11" text-anchor="middle" fill="#334155" font-weight="600">4.93</text>
      
      <rect x="185" y="8" width="40" height="272" fill="url(#barGrad)" rx="4" opacity="0.9"/>
      <text x="205" y="295" font-family="system-ui, sans-serif" font-size="11" text-anchor="middle" fill="#475569">2018</text>
      <text x="205" y="-2" font-family="system-ui, sans-serif" font-size="11" text-anchor="middle" fill="#334155" font-weight="600">5.04</text>
      
      <rect x="240" y="3" width="40" height="277" fill="#059669" rx="4"/>
      <text x="260" y="295" font-family="system-ui, sans-serif" font-size="11" text-anchor="middle" fill="#475569">2019</text>
      <text x="260" y="-7" font-family="system-ui, sans-serif" font-size="11" text-anchor="middle" fill="#059669" font-weight="600">5.12</text>
      
      <rect x="295" y="7" width="40" height="273" fill="url(#barGrad)" rx="4" opacity="0.9"/>
      <text x="315" y="295" font-family="system-ui, sans-serif" font-size="11" text-anchor="middle" fill="#475569">2020</text>
      <text x="315" y="-3" font-family="system-ui, sans-serif" font-size="11" text-anchor="middle" fill="#334155" font-weight="600">5.05</text>
      
      <rect x="350" y="8" width="40" height="272" fill="url(#barGrad)" rx="4" opacity="0.9"/>
      <text x="370" y="295" font-family="system-ui, sans-serif" font-size="11" text-anchor="middle" fill="#475569">2021</text>
      <text x="370" y="-2" font-family="system-ui, sans-serif" font-size="11" text-anchor="middle" fill="#334155" font-weight="600">5.04</text>
      
      <rect x="405" y="51" width="40" height="229" fill="url(#barGrad)" rx="4"/>
      <text x="425" y="295" font-family="system-ui, sans-serif" font-size="11" text-anchor="middle" fill="#475569">2022</text>
      <text x="425" y="41" font-family="system-ui, sans-serif" font-size="11" text-anchor="middle" fill="#334155" font-weight="600">4.26</text>
      
      <rect x="460" y="53" width="40" height="227" fill="url(#barGrad)" rx="4"/>
      <text x="480" y="295" font-family="system-ui, sans-serif" font-size="11" text-anchor="middle" fill="#475569">2023</text>
      <text x="480" y="43" font-family="system-ui, sans-serif" font-size="11" text-anchor="middle" fill="#334155" font-weight="600">4.21</text>
      
      <rect x="515" y="63" width="40" height="217" fill="url(#barGrad)" rx="4"/>
      <text x="535" y="295" font-family="system-ui, sans-serif" font-size="11" text-anchor="middle" fill="#475569">2024</text>
      <text x="535" y="53" font-family="system-ui, sans-serif" font-size="11" text-anchor="middle" fill="#334155" font-weight="600">4.03</text>
    </g>
  </g>
  
  <g transform="translate(60, 1100)">
    <rect width="500" height="580" rx="16" fill="url(#cardGrad)" filter="url(#shadow)"/>
    <text x="250" y="50" font-family="system-ui, sans-serif" font-size="20" font-weight="600" text-anchor="middle" fill="#334155">Population Composition</text>
    
    <g transform="translate(250, 280)">
      <circle cx="0" cy="0" r="120" fill="none" stroke="#e2e8f0" stroke-width="40"/>
      
      <circle cx="0" cy="0" r="120" fill="none" stroke="#3b82f6" stroke-width="40" 
              stroke-dasharray="735.13 753.98" stroke-dashoffset="0" transform="rotate(-90)"/>
      <circle cx="0" cy="0" r="120" fill="none" stroke="#f97316" stroke-width="40" 
              stroke-dasharray="4.52 753.98" stroke-dashoffset="-735.13" transform="rotate(-90)"/>
      <circle cx="0" cy="0" r="120" fill="none" stroke="#10b981" stroke-width="40" 
              stroke-dasharray="3.02 753.98" stroke-dashoffset="-739.65" transform="rotate(-90)"/>
      <circle cx="0" cy="0" r="120" fill="none" stroke="#8b5cf6" stroke-width="40" 
              stroke-dasharray="2.26 753.98" stroke-dashoffset="-742.67" transform="rotate(-90)"/>
      <circle cx="0" cy="0" r="120" fill="none" stroke="#94a3b8" stroke-width="40" 
              stroke-dasharray="9.05 753.98" stroke-dashoffset="-744.93" transform="rotate(-90)"/>
      
      <text x="0" y="10" font-family="system-ui, sans-serif" font-size="24" font-weight="700" text-anchor="middle" fill="#334155">123.2M</text>
      <text x="0" y="30" font-family="system-ui, sans-serif" font-size="12" text-anchor="middle" fill="#64748b">Total Population (2024)</text>
    </g>
    
    <g transform="translate(50, 450)">
      <g transform="translate(0, 0)">
        <rect x="0" y="0" width="16" height="16" rx="4" fill="#3b82f6"/>
        <text x="24" y="12" font-family="system-ui, sans-serif" font-size="14" fill="#475569">Japanese 97.5%</text>
      </g>
      <g transform="translate(0, 30)">
        <rect x="0" y="0" width="16" height="16" rx="4" fill="#f97316"/>
        <text x="24" y="12" font-family="system-ui, sans-serif" font-size="14" fill="#475569">Chinese 0.6%</text>
      </g>
      <g transform="translate(0, 60)">
        <rect x="0" y="0" width="16" height="16" rx="4" fill="#10b981"/>
        <text x="24" y="12" font-family="system-ui, sans-serif" font-size="14" fill="#475569">Vietnamese 0.4%</text>
      </g>
      <g transform="translate(220, 0)">
        <rect x="0" y="0" width="16" height="16" rx="4" fill="#8b5cf6"/>
        <text x="24" y="12" font-family="system-ui, sans-serif" font-size="14" fill="#475569">South Korean 0.3%</text>
      </g>
      <g transform="translate(220, 30)">
        <rect x="0" y="0" width="16" height="16" rx="4" fill="#94a3b8"/>
        <text x="24" y="12" font-family="system-ui, sans-serif" font-size="14" fill="#475569">Other 1.2%</text>
      </g>
    </g>
  </g>
  
  <g transform="translate(580, 1100)">
    <rect width="560" height="580" rx="16" fill="url(#cardGrad)" filter="url(#shadow)"/>
    <text x="280" y="50" font-family="system-ui, sans-serif" font-size="20" font-weight="600" text-anchor="middle" fill="#334155">What to Visit</text>
    
    <g transform="translate(40, 80)">
      <g transform="translate(0, 0)">
        <rect x="0" y="0" width="480" height="70" rx="12" fill="#fef3c7"/>
        <text x="20" y="30" font-family="system-ui, sans-serif" font-size="18" font-weight="700" fill="#b45309">Tokyo</text>
        <text x="20" y="52" font-family="system-ui, sans-serif" font-size="14" fill="#92400e">Ultramodern neon-lit streets meet traditional temples in the world's largest metropolis</text>
      </g>
      
      <g transform="translate(0, 85)">
        <rect x="0" y="0" width="480" height="70" rx="12" fill="#fce7f3"/>
        <text x="20" y="30" font-family="system-ui, sans-serif" font-size="18" font-weight="700" fill="#be185d">Kyoto</text>
        <text x="20" y="52" font-family="system-ui, sans-serif" font-size="14" fill="#9d174d">Ancient capital with 2,000+ temples, geisha districts, and sublime Zen gardens</text>
      </g>
      
      <g transform="translate(0, 170)">
        <rect x="0" y="0" width="480" height="70" rx="12" fill="#dbeafe"/>
        <text x="20" y="30" font-family="system-ui, sans-serif" font-size="18" font-weight="700" fill="#1d4ed8">Osaka</text>
        <text x="20" y="52" font-family="system-ui, sans-serif" font-size="14" fill="#1e40af">Japan's kitchen offers street food, nightlife, and the iconic Osaka Castle</text>
      </g>
      
      <g transform="translate(0, 255)">
        <rect x="0" y="0" width="480" height="70" rx="12" fill="#d1fae5"/>
        <text x="20" y="30" font-family="system-ui, sans-serif" font-size="18" font-weight="700" fill="#047857">Hiroshima &amp; Miyajima</text>
        <text x="20" y="52" font-family="system-ui, sans-serif" font-size="14" fill="#065f46">Peace Memorial Park and the iconic floating torii gate on Itsukushima Shrine</text>
      </g>
      
      <g transform="translate(0, 340)">
        <rect x="0" y="0" width="480" height="70" rx="12" fill="#e0e7ff"/>
        <text x="20" y="30" font-family="system-ui, sans-serif" font-size="18" font-weight="700" fill="#4338ca">Mount Fuji &amp; Hakone</text>
        <text x="20" y="52" font-family="system-ui, sans-serif" font-size="14" fill="#3730a3">Iconic symmetrical volcano, hot springs, and stunning lake views</text>
      </g>
      
      <g transform="translate(0, 425)">
        <rect x="0" y="0" width="480" height="70" rx="12" fill="#f3e8ff"/>
        <text x="20" y="30" font-family="system-ui, sans-serif" font-size="18" font-weight="700" fill="#7e22ce">Hokkaido</text>
        <text x="20" y="52" font-family="system-ui, sans-serif" font-size="14" fill="#6b21a8">Pristine wilderness, ski resorts, lavender fields, and fresh seafood</text>
      </g>
    </g>
  </g>
  
  <g transform="translate(60, 1700)">
    <text x="540" y="40" font-family="system-ui, sans-serif" font-size="12" fill="#94a3b8" text-anchor="middle">
      Sources: World Bank (GDP data 2015-2024), Ministry of Internal Affairs and Communications Japan (Population data 2024), Japan National Tourism Organization
    </text>
  </g>
</svg>