<?xml version="1.0" encoding="UTF-8"?>
<svg xmlns="http://www.w3.org/2000/svg" xmlns:xlink="http://www.w3.org/1999/xlink" viewBox="0 0 1200 1600" width="100%" height="100%" preserveAspectRatio="xMidYMid meet">
  <defs>
    <!-- Sky Gradients -->
    <linearGradient id="skyGrad" x1="0%" y1="0%" x2="0%" y2="100%">
      <stop offset="0%" stop-color="#e8f4f8"/>
      <stop offset="50%" stop-color="#d4e8f0"/>
      <stop offset="100%" stop-color="#c8dde6"/>
    </linearGradient>
    
    <linearGradient id="mistGrad" x1="0%" y1="0%" x2="0%" y2="100%">
      <stop offset="0%" stop-color="#ffffff" stop-opacity="0"/>
      <stop offset="50%" stop-color="#ffffff" stop-opacity="0.3"/>
      <stop offset="100%" stop-color="#ffffff" stop-opacity="0.6"/>
    </linearGradient>
    
    <!-- Pagoda Materials -->
    <linearGradient id="pillarGrad" x1="0%" y1="0%" x2="100%" y2="0%">
      <stop offset="0%" stop-color="#8B0000"/>
      <stop offset="50%" stop-color="#DC143C"/>
      <stop offset="100%" stop-color="#8B0000"/>
    </linearGradient>
    
    <linearGradient id="wallGrad" x1="0%" y1="0%" x2="100%" y2="0%">
      <stop offset="0%" stop-color="#f5f5dc"/>
      <stop offset="50%" stop-color="#fafad2"/>
      <stop offset="100%" stop-color="#f5f5dc"/>
    </linearGradient>
    
    <linearGradient id="roofGrad" x1="0%" y1="0%" x2="0%" y2="100%">
      <stop offset="0%" stop-color="#2c3e50"/>
      <stop offset="50%" stop-color="#34495e"/>
      <stop offset="100%" stop-color="#1a252f"/>
    </linearGradient>
    
    <linearGradient id="goldGrad" x1="0%" y1="0%" x2="100%" y2="100%">
      <stop offset="0%" stop-color="#FFD700"/>
      <stop offset="50%" stop-color="#FFA500"/>
      <stop offset="100%" stop-color="#B8860B"/>
    </linearGradient>
    
    <!-- Dragon Scales -->
    <pattern id="dragonScales" x="0" y="0" width="20" height="20" patternUnits="userSpaceOnUse">
      <ellipse cx="10" cy="10" rx="8" ry="6" fill="none" stroke="#228B22" stroke-width="1"/>
      <ellipse cx="10" cy="10" rx="6" ry="4" fill="#32CD32"/>
    </pattern>
    
    <radialGradient id="scaleGrad" cx="50%" cy="50%" r="50%">
      <stop offset="0%" stop-color="#7CFC00"/>
      <stop offset="70%" stop-color="#228B22"/>
      <stop offset="100%" stop-color="#006400"/>
    </radialGradient>
    
    <!-- Water -->
    <linearGradient id="waterGrad" x1="0%" y1="0%" x2="0%" y2="100%">
      <stop offset="0%" stop-color="#87CEEB"/>
      <stop offset="100%" stop-color="#4682B4"/>
    </linearGradient>
    
    <!-- Shadows -->
    <filter id="softShadow" x="-20%" y="-20%" width="140%" height="140%">
      <feGaussianBlur in="SourceAlpha" stdDeviation="3"/>
      <feOffset dx="2" dy="2" result="offsetblur"/>
      <feComponentTransfer>
        <feFuncA type="linear" slope="0.3"/>
      </feComponentTransfer>
      <feMerge>
        <feMergeNode/>
        <feMergeNode in="SourceGraphic"/>
      </feMerge>
    </filter>
    
    <filter id="glow">
      <feGaussianBlur stdDeviation="2" result="coloredBlur"/>
      <feMerge>
        <feMergeNode in="coloredBlur"/>
        <feMergeNode in="SourceGraphic"/>
      </feMerge>
    </filter>
  </defs>
  
  <!-- Background -->
  <rect width="1200" height="1600" fill="url(#skyGrad)"/>
  
  <!-- Distant Mountains -->
  <path d="M0 800 Q200 600 400 750 T800 700 T1200 800 L1200 1600 L0 1600 Z" fill="#b8d4e3" opacity="0.5"/>
  <path d="M-100 900 Q300 700 600 850 T1300 800 L1300 1600 L-100 1600 Z" fill="#a0c8d8" opacity="0.4"/>
  
  <!-- Clouds -->
  <g opacity="0.6">
    <ellipse cx="200" cy="200" rx="120" ry="40" fill="#ffffff"/>
    <ellipse cx="280" cy="220" rx="100" ry="35" fill="#ffffff"/>
    <ellipse cx="150" cy="230" rx="80" ry="30" fill="#ffffff"/>
    
    <ellipse cx="900" cy="150" rx="140" ry="45" fill="#ffffff"/>
    <ellipse cx="1000" cy="170" rx="110" ry="38" fill="#ffffff"/>
    <ellipse cx="820" cy="180" rx="90" ry="32" fill="#ffffff"/>
    
    <ellipse cx="600" cy="300" rx="100" ry="35" fill="#ffffff" opacity="0.7"/>
  </g>
  
  <!-- Mist Layers -->
  <rect x="0" y="600" width="1200" height="400" fill="url(#mistGrad)"/>
  <rect x="0" y="900" width="1200" height="300" fill="url(#mistGrad)" opacity="0.7"/>
  
  <!-- Ground/Garden Base -->
  <path d="M0 1200 Q600 1100 1200 1200 L1200 1600 L0 1600 Z" fill="#8FBC8F"/>
  
  <!-- Decorative Pathway -->
  <path d="M550 1600 L600 1400 L580 1300 L620 1200 L590 1100" stroke="#d4c4a8" stroke-width="40" fill="none" opacity="0.8"/>
  <path d="M550 1600 L600 1400 L580 1300 L620 1200 L590 1100" stroke="#c9b896" stroke-width="30" fill="none"/>
  
  <!-- Stones/Rocks -->
  <g fill="#696969" stroke="#555" stroke-width="1">
    <path d="M100 1300 Q80 1250 120 1220 Q180 1240 160 1280 Q140 1320 100 1300"/>
    <path d="M150 1350 Q130 1300 170 1280 Q220 1300 200 1340 Q180 1380 150 1350"/>
    <path d="M950 1320 Q920 1270 970 1250 Q1030 1270 1010 1310 Q990 1350 950 1320"/>
    <path d="M1050 1380 Q1020 1330 1070 1310 Q1130 1330 1110 1370 Q1090 1410 1050 1380"/>
    <path d="M300 1420 Q280 1380 320 1360 Q370 1380 350 1410 Q330 1440 300 1420"/>
  </g>
  
  <!-- Pond -->
  <ellipse cx="850" cy="1450" rx="200" ry="80" fill="url(#waterGrad)"/>
  <ellipse cx="850" cy="1450" rx="180" ry="70" fill="#5F9EA0" opacity="0.3"/>
  
  <!-- Lily Pads -->
  <g fill="#228B22" stroke="#006400" stroke-width="1">
    <ellipse cx="780" cy="1430" rx="25" ry="15" transform="rotate(20 780 1430)"/>
    <ellipse cx="820" cy="1480" rx="20" ry="12" transform="rotate(-15 820 1480)"/>
    <ellipse cx="880" cy="1420" rx="22" ry="13" transform="rotate(30 880 1420)"/>
    <ellipse cx="920" cy="1470" rx="18" ry="11" transform="rotate(-10 920 1470)"/>
    <ellipse cx="800" cy="1460" rx="15" ry="9" transform="rotate(45 800 1460)"/>
  </g>
  
  <!-- Lotus Flowers -->
  <g fill="#FFB6C1" stroke="#FF69B4" stroke-width="1">
    <ellipse cx="780" cy="1425" rx="8" ry="5"/>
    <ellipse cx="780" cy="1425" rx="5" ry="8" transform="rotate(60 780 1425)"/>
    <ellipse cx="780" cy="1425" rx="5" ry="8" transform="rotate(120 780 1425)"/>
    
    <ellipse cx="880" cy="1415" rx="8" ry="5"/>
    <ellipse cx="880" cy="1415" rx="5" ry="8" transform="rotate(60 880 1415)"/>
    <ellipse cx="880" cy="1415" rx="5" ry="8" transform="rotate(120 880 1415)"/>
  </g>
  
  <!-- Pine Trees (Background) -->
  <g transform="translate(150 1100)">
    <rect x="-8" y="0" width="16" height="100" fill="#654321"/>
    <path d="M0 -80 L-60 0 L-30 0 L-70 60 L-20 60 L-80 120 L80 120 L20 60 L70 60 L30 0 L60 0 Z" fill="#2F4F4F"/>
    <path d="M0 -80 L-50 20 L-20 20 L-60 80 L-10 80 L-70 140 L70 140 L10 80 L60 80 L20 20 L50 20 Z" fill="#1a3a3a" opacity="0.7"/>
  </g>
  
  <g transform="translate(1050 1080)">
    <rect x="-10" y="0" width="20" height="120" fill="#654321"/>
    <path d="M0 -100 L-70 0 L-35 0 L-80 70 L-25 70 L-90 140 L90 140 L25 70 L80 70 L35 0 L70 0 Z" fill="#2F4F4F"/>
    <path d="M0 -100 L-60 25 L-25 25 L-70 90 L-15 90 L-80 160 L80 160 L15 90 L70 90 L25 25 L60 25 Z" fill="#1a3a3a" opacity="0.7"/>
  </g>
  
  <!-- Bamboo Clusters -->
  <g stroke="#228B22" stroke-width="3" fill="none">
    <path d="M250 1400 L255 1250 M252 1350 L258 1350 M251 1300 L257 1300"/>
    <path d="M265 1420 L260 1270 M263 1370 L268 1370 M262 1320 L267 1320"/>
    <path d="M240 1410 L245 1260 M242 1360 L248 1360 M241 1310 L247 1310"/>
  </g>
  <g fill="#32CD32">
    <path d="M245 1260 Q235 1250 230 1260 Q240 1270 245 1260"/>
    <path d="M255 1250 Q265 1240 270 1250 Q260 1260 255 1250"/>
    <path d="M240 1265 Q230 1255 225 1265 Q235 1275 240 1265"/>
  </g>
  
  <g stroke="#228B22" stroke-width="3" fill="none" transform="translate(900 0)">
    <path d="M250 1400 L255 1250 M252 1350 L258 1350 M251 1300 L257 1300"/>
    <path d="M265 1420 L260 1270 M263 1370 L268 1370 M262 1320 L267 1320"/>
  </g>
  
  <!-- PAGODA STRUCTURE -->
  <g transform="translate(600 400)" filter="url(#softShadow)">
    
    <!-- Floor 1 (Base) - Largest -->
    <g>
      <!-- Platform -->
      <rect x="-140" y="380" width="280" height="40" fill="#8B4513" rx="5"/>
      <rect x="-135" y="385" width="270" height="30" fill="#A0522D"/>
      
      <!-- Main Structure -->
      <rect x="-120" y="280" width="240" height="100" fill="url(#wallGrad)"/>
      
      <!-- Pillars -->
      <rect x="-115" y="280" width="12" height="100" fill="url(#pillarGrad)"/>
      <rect x="-55" y="280" width="12" height="100" fill="url(#pillarGrad)"/>
      <rect x="5" y="280" width="12" height="100" fill="url(#pillarGrad)"/>
      <rect x="65" y="280" width="12" height="100" fill="url(#pillarGrad)"/>
      <rect x="103" y="280" width="12" height="100" fill="url(#pillarGrad)"/>
      
      <!-- Door -->
      <rect x="-25" y="310" width="50" height="70" fill="#8B0000" rx="3"/>
      <circle cx="-12" cy="345" r="3" fill="#FFD700"/>
      <circle cx="12" cy="345" r="3" fill="#FFD700"/>
      
      <!-- Lattice Windows -->
      <g stroke="#8B0000" stroke-width="2" fill="#f5f5dc">
        <rect x="-90" y="300" width="25" height="40"/>
        <line x1="-90" y1="320" x2="-65" y2="320"/>
        <line x1="-90" y1="340" x2="-65" y2="340"/>
        <line x1="-77" y1="300" x2="-77" y2="340"/>
        
        <rect x="65" y="300" width="25" height="40"/>
        <line x1="65" y1="320" x2="90" y2="320"/>
        <line x1="65" y1="340" x2="90" y2="340"/>
        <line x1="77" y1="300" x2="77" y2="340"/>
      </g>
      
      <!-- Balcony -->
      <rect x="-130" y="350" width="260" height="15" fill="#654321"/>
      <rect x="-125" y="345" width="250" height="10" fill="#8B4513"/>
      
      <!-- Balcony Railing -->
      <line x1="-120" y1="345" x2="120" y2="345" stroke="#8B0000" stroke-width="3"/>
      <g stroke="#8B0000" stroke-width="2">
        <line x1="-100" y1="345" x2="-100" y2="335"/>
        <line x1="-60" y1="345" x2="-60" y2="335"/>
        <line x1="-20" y1="345" x2="-20" y2="335"/>
        <line x1="20" y1="345" x2="20" y2="335"/>
        <line x1="60" y1="345" x2="60" y2="335"/>
        <line x1="100" y1="345" x2="100" y2="335"/>
      </g>
      
      <!-- Roof 1 -->
      <path d="M-150 280 Q-170 270 -160 260 Q-120 265 0 260 Q120 265 160 260 Q170 270 150 280 Z" fill="url(#roofGrad)"/>
      <path d="M-160 260 Q-180 250 -170 240 Q-130 245 0 240 Q130 245 170 240 Q180 250 160 260" fill="url(#roofGrad)" stroke="#FFD700" stroke-width="2"/>
      
      <!-- Roof Ornaments -->
      <circle cx="0" cy="235" r="8" fill="#FFD700"/>
      <path d="M-80 250 L-75 230 L-70 250 Z" fill="#FFD700"/>
      <path d="M80 250 L75 230 L70 250 Z" fill="#FFD700"/>
      
      <!-- Hanging Lanterns -->
      <g transform="translate(-130 265)">
        <line x1="0" y1="0" x2="0" y2="15" stroke="#8B0000" stroke-width="2"/>
        <rect x="-8" y="15" width="16" height="20" fill="#DC143C" rx="3"/>
        <rect x="-6" y="17" width="12" height="16" fill="#ff6b6b" opacity="0.5"/>
        <line x1="0" y1="35" x2="0" y2="40" stroke="#FFD700" stroke-width="2"/>
        <path d="M-5 40 L5 40 L0 50 Z" fill="#FFD700"/>
      </g>
      <g transform="translate(130 265)">
        <line x1="0" y1="0" x2="0" y2="15" stroke="#8B0000" stroke-width="2"/>
        <rect x="-8" y="15" width="16" height="20" fill="#DC143C" rx="3"/>
        <rect x="-6" y="17" width="12" height="16" fill="#ff6b6b" opacity="0.5"/>
        <line x1="0" y1="35" x2="0" y2="40" stroke="#FFD700" stroke-width="2"/>
        <path d="M-5 40 L5 40 L0 50 Z" fill="#FFD700"/>
      </g>
    </g>
    
    <!-- Floor 2 -->
    <g transform="translate(0 -110)">
      <rect x="-100" y="280" width="200" height="80" fill="url(#wallGrad)"/>
      
      <!-- Pillars -->
      <rect x="-95" y="280" width="10" height="80" fill="url(#pillarGrad)"/>
      <rect x="-32" y="280" width="10" height="80" fill="url(#pillarGrad)"/>
      <rect x="32" y="280" width="10" height="80" fill="url(#pillarGrad)"/>
      <rect x="85" y="280" width="10" height="80" fill="url(#pillarGrad)"/>
      
      <!-- Windows -->
      <g stroke="#8B0000" stroke-width="2" fill="#f5f5dc">
        <rect x="-70" y="300" width="30" height="35"/>
        <line x1="-70" y1="317" x2="-40" y2="317"/>
        <line x1="-55" y1="300" x2="-55" y2="335"/>
        
        <rect x="40" y="300" width="30" height="35"/>
        <line x1="40" y1="317" x2="70" y2="317"/>
        <line x1="55" y1="300" x2="55" y2="335"/>
      </g>
      
      <!-- Balcony -->
      <rect x="-110" y="350" width="220" height="12" fill="#654321"/>
      <line x1="-100" y1="340" x2="100" y2="340" stroke="#8B0000" stroke-width="2"/>
      
      <!-- Roof -->
      <path d="M-130 280 Q-150 270 -140 260 Q-100 265 0 260 Q100 265 140 260 Q150 270 130 280 Z" fill="url(#roofGrad)"/>
      <path d="M-140 260 Q-160 250 -150 240 Q-110 245 0 240 Q110 245 150 240 Q160 250 140 260" fill="url(#roofGrad)" stroke="#FFD700" stroke-width="2"/>
      
      <circle cx="0" cy="235" r="7" fill="#FFD700"/>
      
      <!-- Lanterns -->
      <g transform="translate(-110 265)">
        <rect x="-6" y="10" width="12" height="15" fill="#DC143C" rx="2"/>
        <line x1="0" y1="0" x2="0" y2="10" stroke="#8B0000"/>
      </g>
      <g transform="translate(110 265)">
        <rect x="-6" y="10" width="12" height="15" fill="#DC143C" rx="2"/>
        <line x1="0" y1="0" x2="0" y2="10" stroke="#8B0000"/>
      </g>
    </g>
    
    <!-- Floor 3 -->
    <g transform="translate(0 -210)">
      <rect x="-85" y="280" width="170" height="70" fill="url(#wallGrad)"/>
      
      <rect x="-80" y="280" width="9" height="70" fill="url(#pillarGrad)"/>
      <rect x="-26" y="280" width="9" height="70" fill="url(#pillarGrad)"/>
      <rect x="26" y="280" width="9" height="70" fill="url(#pillarGrad)"/>
      <rect x="71" y="280" width="9" height="70" fill="url(#pillarGrad)"/>
      
      <g stroke="#8B0000" stroke-width="2" fill="#f5f5dc">
        <rect x="-55" y="295" width="20" height="25"/>
        <line x1="-55" y1="307" x2="-35" y2="307"/>
        <line x1="-45" y1="295" x2="-45" y2="320"/>
        
        <rect x="35" y="295" width="20" height="25"/>
        <line x1="35" y1="307" x2="55" y2="307"/>
        <line x1="45" y1="295" x2="45" y2="320"/>
      </g>
      
      <rect x="-95" y="340" width="190" height="10" fill="#654321"/>
      
      <path d="M-115 280 Q-135 270 -125 260 Q-85 265 0 260 Q85 265 125 260 Q135 270 115 280 Z" fill="url(#roofGrad)"/>
      <path d="M-125 260 Q-145 250 -135 240 Q-95 245 0 240 Q95 245 135 240 Q145 250 125 260" fill="url(#roofGrad)" stroke="#FFD700" stroke-width="2"/>
      
      <circle cx="0" cy="235" r="6" fill="#FFD700"/>
    </g>
    
    <!-- Floor 4 -->
    <g transform="translate(0 -300)">
      <rect x="-72" y="280" width="144" height="60" fill="url(#wallGrad)"/>
      
      <rect x="-68" y="280" width="8" height="60" fill="url(#pillarGrad)"/>
      <rect x="-22" y="280" width="8" height="60" fill="url(#pillarGrad)"/>
      <rect x="22" y="280" width="8" height="60" fill="url(#pillarGrad)"/>
      <rect x="60" y="280" width="8" height="60" fill="url(#pillarGrad)"/>
      
      <circle cx="0" cy="310" r="15" fill="#DC143C"/>
      <text x="0" y="315" text-anchor="middle" font-family="serif" font-size="12" fill="#FFD700" font-weight="bold">福</text>
      
      <rect x="-82" y="330" width="164" height="8" fill="#654321"/>
      
      <path d="M-100 280 Q-120 270 -110 260 Q-70 265 0 260 Q70 265 110 260 Q120 270 100 280 Z" fill="url(#roofGrad)"/>
      <path d="M-110 260 Q-130 250 -120 240 Q-80 245 0 240 Q80 245 120 240 Q130 250 110 260" fill="url(#roofGrad)" stroke="#FFD700" stroke-width="2"/>
      
      <circle cx="0" cy="235" r="5" fill="#FFD700"/>
    </g>
    
    <!-- Floor 5 -->
    <g transform="translate(0 -380)">
      <rect x="-60" y="280" width="120" height="50" fill="url(#wallGrad)"/>
      
      <rect x="-56" y="280" width="7" height="50" fill="url(#pillarGrad)"/>
      <rect x="18" y="280" width="7" height="50" fill="url(#pillarGrad)"/>
      <rect x="49" y="280" width="7" height="50" fill="url(#pillarGrad)"/>
      
      <rect x="-70" y="320" width="140" height="7" fill="#654321"/>
      
      <path d="M-85 280 Q-105 270 -95 260 Q-55 265 0 260 Q55 265 95 260 Q105 270 85 280 Z" fill="url(#roofGrad)"/>
      <path d="M-95 260 Q-115 250 -105 240 Q-65 245 0 240 Q65 245 105 240 Q115 250 95 260" fill="url(#roofGrad)" stroke="#FFD700" stroke-width="1.5"/>
      
      <circle cx="0" cy="235" r="4" fill="#FFD700"/>
    </g>
    
    <!-- Floor 6 -->
    <g transform="translate(0 -455)">
      <rect x="-50" y="280" width="100" height="40" fill="url(#wallGrad)"/>
      
      <rect x="-46" y="280" width="6" height="40" fill="url(#pillarGrad)"/>
      <rect x="12" y="280" width="6" height="40" fill="url(#pillarGrad)"/>
      <rect x="40" y="280" width="6" height="40" fill="url(#pillarGrad)"/>
      
      <rect x="-58" y="310" width="116" height="6" fill="#654321"/>
      
      <path d="M-72 280 Q-92 270 -82 260 Q-42 265 0 260 Q42 265 82 260 Q92 270 72 280 Z" fill="url(#roofGrad)"/>
      <path d="M-82 260 Q-102 250 -92 240 Q-52 245 0 240 Q52 245 92 240 Q102 250 82 260" fill="url(#roofGrad)" stroke="#FFD700" stroke-width="1.5"/>
      
      <circle cx="0" cy="235" r="3" fill="#FFD700"/>
    </g>
    
    <!-- Floor 7 -->
    <g transform="translate(0 -525)">
      <rect x="-40" y="280" width="80" height="30" fill="url(#wallGrad)"/>
      
      <rect x="-36" y="280" width="5" height="30" fill="url(#pillarGrad)"/>
      <rect x="31" y="280" width="5" height="30" fill="url(#pillarGrad)"/>
      
      <rect x="-48" y="300" width="96" height="5" fill="#654321"/>
      
      <path d="M-60 280 Q-80 270 -70 260 Q-30 265 0 260 Q30 265 70 260 Q80 270 60 280 Z" fill="url(#roofGrad)"/>
      <path d="M-70 260 Q-90 250 -80 240 Q-40 245 0 240 Q40 245 80 240 Q90 250 70 260" fill="url(#roofGrad)" stroke="#FFD700" stroke-width="1"/>
      
      <circle cx="0" cy="235" r="3" fill="#FFD700"/>
    </g>
    
    <!-- Floor 8 (Top) -->
    <g transform="translate(0 -590)">
      <rect x="-30" y="280" width="60" height="20" fill="url(#wallGrad)"/>
      
      <rect x="-40" y="290" width="80" height="4" fill="#654321"/>
      
      <path d="M-50 280 Q-70 270 -60 260 Q-20 265 0 260 Q20 265 60 260 Q70 270 50 280 Z" fill="url(#roofGrad)"/>
      <path d="M-60 260 Q-80 250 -70 240 Q-30 245 0 240 Q30 245 70 240 Q80 250 60 260" fill="url(#roofGrad)" stroke="#FFD700" stroke-width="1"/>
      
      <!-- Spire -->
      <rect x="-3" y="220" width="6" height="20" fill="#FFD700"/>
      <circle cx="0" cy="218" r="4" fill="#FFD700"/>
      <path d="M0 180 L-8 220 L8 220 Z" fill="url(#goldGrad)"/>
      <circle cx="0" cy="175" r="3" fill="#FFD700" filter="url(#glow)"/>
    </g>
    
  </g>
  
  <!-- CHINESE DRAGON -->
  <g filter="url(#softShadow)">
    <!-- Dragon wrapping from bottom left, around pagoda, to top right -->
    
    <!-- Dragon Body - Lower Coil -->
    <path d="M100 1400 
             C150 1350 200 1380 250 1320 
             C300 1260 350 1280 400 1220
             C450 1160 500 1180 550 1120
             L580 1080
             L600 1100
             L560 1150
             C500 1200 450 1180 400 1240
             C350 1300 300 1280 250 1340
             C200 1400 150 1380 120 1420
             Z" 
          fill="url(#scaleGrad)" stroke="#006400" stroke-width="2"/>
    
    <!-- Scales Pattern Overlay -->
    <g fill="#7CFC00" opacity="0.3">
      <ellipse cx="200" cy="1340" rx="15" ry="10" transform="rotate(30 200 1340)"/>
      <ellipse cx="250" cy="1300" rx="15" ry="10" transform="rotate(25 250 1300)"/>
      <ellipse cx="300" cy="1260" rx="15" ry="10" transform="rotate(20 300 1260)"/>
      <ellipse cx="350" cy="1220" rx="15" ry="10" transform="rotate(15 350 1220)"/>
      <ellipse cx="400" cy="1180" rx="15" ry="10" transform="rotate(10 400 1180)"/>
      <ellipse cx="450" cy="1140" rx="15" ry="10" transform="rotate(5 450 1140)"/>
      <ellipse cx="500" cy="1100" rx="15" ry="10"/>
    </g>
    
    <!-- Dragon Body - Middle Section wrapping around pagoda -->
    <path d="M550 1120
             C600 1060 650 1020 700 950
             C750 880 800 860 850 800
             C900 740 950 720 1000 650
             L1020 620
             L1040 640
             L1000 690
             C950 750 900 780 850 840
             C800 900 750 920 700 980
             C650 1040 600 1060 560 1120
             Z"
          fill="url(#scaleGrad)" stroke="#006400" stroke-width="2"/>
    
    <!-- More scales -->
    <g fill="#7CFC00" opacity="0.3">
      <ellipse cx="600" cy="1050" rx="14" ry="9" transform="rotate(-20 600 1050)"/>
      <ellipse cx="650" cy="1000" rx="14" ry="9" transform="rotate(-25 650 1000)"/>
      <ellipse cx="700" cy="930" rx="14" ry="9" transform="rotate(-30 700 930)"/>
      <ellipse cx="750" cy="870" rx="14" ry="9" transform="rotate(-35 750 870)"/>
      <ellipse cx="800" cy="820" rx="14" ry="9" transform="rotate(-40 800 820)"/>
      <ellipse cx="850" cy="770" rx="14" ry="9" transform="rotate(-45 850 770)"/>
      <ellipse cx="900" cy="720" rx="14" ry="9" transform="rotate(-50 900 720)"/>
      <ellipse cx="950" cy="670" rx="14" ry="9" transform="rotate(-55 950 670)"/>
    </g>
    
    <!-- Dragon Head -->
    <g transform="translate(1020 600) rotate(-30)">
      <!-- Neck connection -->
      <ellipse cx="0" cy="20" rx="25" ry="15" fill="url(#scaleGrad)"/>
      
      <!-- Main Head -->
      <ellipse cx="0" cy="-10" rx="35" ry="28" fill="url(#scaleGrad)"/>
      
      <!-- Snout -->
      <ellipse cx="0" cy="5" rx="20" ry="18" fill="#32CD32"/>
      <ellipse cx="0" cy="5" rx="15" ry="12" fill="#228B22"/>
      
      <!-- Nostrils -->
      <ellipse cx="-6" cy="0" rx="3" ry="2" fill="#006400"/>
      <ellipse cx="6" cy="0" rx="3" ry="2" fill="#006400"/>
      
      <!-- Mouth -->
      <path d="M-15 12 Q0 18 15 12" stroke="#006400" stroke-width="2" fill="none"/>
      <path d="M-12 15 Q0 20 12 15" stroke="#8B0000" stroke-width="1" fill="none"/>
      
      <!-- Eyes -->
      <ellipse cx="-15" cy="-15" rx="10" ry="8" fill="#FFD700" stroke="#B8860B" stroke-width="2"/>
      <ellipse cx="15" cy="-15" rx="10" ry="8" fill="#FFD700" stroke="#B8860B" stroke-width="2"/>
      <ellipse cx="-15" cy="-15" rx="5" ry="4" fill="#000"/>
      <ellipse cx="15" cy="-15" rx="5" ry="4" fill="#000"/>
      <circle cx="-13" cy="-17" r="2" fill="#fff"/>
      <circle cx="17" cy="-17" r="2" fill="#fff"/>
      
      <!-- Eyebrows -->
      <path d="M-30 -25 Q-15 -35 -5 -20" stroke="#006400" stroke-width="3" fill="none"/>
      <path d="M30 -25 Q15 -35 5 -20" stroke="#006400" stroke-width="3" fill="none"/>
      
      <!-- Horns -->
      <path d="M-20 -35 Q-30 -60 -25 -80" stroke="#8B4513" stroke-width="6" fill="none"/>
      <path d="M20 -35 Q30 -60 25 -80" stroke="#8B4513" stroke-width="6" fill="none"/>
      <path d="M-25 -80 L-28 -85 L-22 -85 Z" fill="#654321"/>
      <path d="M25 -80 L22 -85 L28 -85 Z" fill="#654321"/>
      
      <!-- Whiskers -->
      <path d="M-18 5 Q-40 20 -50 50" stroke="#fff" stroke-width="2" fill="none" opacity="0.8"/>
      <path d="M18 5 Q40 20 50 50" stroke="#fff" stroke-width="2" fill="none" opacity="0.8"/>
      <path d="M-15 8 Q-35 30 -45 60" stroke="#fff" stroke-width="1.5" fill="none" opacity="0.6"/>
      <path d="M15 8 Q35 30 45 60" stroke="#fff" stroke-width="1.5" fill="none" opacity="0.6"/>
      
      <!-- Mane/Frills -->
      <g fill="#DC143C" opacity="0.9">
        <path d="M-30 -5 L-45 10 L-35 15 Z"/>
        <path d="M-28 10 L-42 25 L-32 28 Z"/>
        <path d="M30 -5 L45 10 L35 15 Z"/>
        <path d="M28 10 L42 25 L32 28 Z"/>
      </g>
      <g fill="#FFD700" opacity="0.8">
        <path d="M-35 -20 L-50 -10 L-40 -5 Z"/>
        <path d="M35 -20 L50 -10 L40 -5 Z"/>
        <path d="M0 -38 L-10 -50 L10 -50 Z"/>
      </g>
      
      <!-- Claws visible near head -->
      <g fill="#FFD700" stroke="#B8860B" stroke-width="1">
        <path d="M-25 40 L-30 55 L-20 50 Z"/>
        <path d="M25 40 L30 55 L20 50 Z"/>
      </g>
    </g>
    
    <!-- Dragon Tail -->
    <path d="M120 1420
             C80 1450 40 1430 20 1480
             C0 1530 30 1560 60 1550
             C100 1540 120 1500 140 1520
             C160 1540 150 1570 130 1580
             C110 1590 90 1580 80 1560"
          fill="none" stroke="url(#scaleGrad)" stroke-width="25" stroke-linecap="round"/>
    
    <!-- Tail Tuft -->
    <g fill="#DC143C">
      <path d="M80 1560 L70 1590 L90 1585 Z"/>
      <path d="M80 1560 L60 1580 L75 1570 Z"/>
      <path d="M80 1560 L100 1580 L85 1570 Z"/>
    </g>
    
    <!-- Additional Body Segments and Claws along the dragon -->
    <!-- Claws on the middle section -->
    <g transform="translate(700 950) rotate(-30)" fill="#FFD700" stroke="#B8860B" stroke-width="1">
      <path d="M-10 20 L-20 35 L-5 30 Z"/>
      <path d="M0 22 L-5 40 L10 35 Z"/>
      <path d="M10 20 L20 35 L25 25 Z"/>
    </g>
    
    <g transform="translate(850 800) rotate(-35)" fill="#FFD700" stroke="#B8860B" stroke-width="1">
      <path d="M-8 18 L-18 33 L-3 28 Z"/>
      <path d="M2 20 L-3 38 L12 33 Z"/>
      <path d="M12 18 L22 33 L27 23 Z"/>
    </g>
    
    <!-- Decorative patterns on dragon body -->
    <g fill="#FFD700" opacity="0.6">
      <circle cx="300" cy="1280" r="8"/>
      <circle cx="400" cy="1200" r="7"/>
      <circle cx="500" cy="1120" r="6"/>
      <circle cx="700" cy="930" r="7"/>
      <circle cx="850" cy="770" r="6"/>
    </g>
    
  </g>
  
  <!-- Foreground Garden Elements -->
  <!-- Cherry Blossoms -->
  <g fill="#FFB6C1" opacity="0.8">
    <circle cx="150" cy="1300" r="8"/>
    <circle cx="170" cy="1280" r="6"/>
    <circle cx="130" cy="1320" r="7"/>
    <circle cx="160" cy="1330" r="5"/>
    <circle cx="140" cy="1280" r="6"/>
    
    <circle cx="1000" cy="1350" r="8"/>
    <circle cx="1020" cy="1330" r="6"/>
    <circle cx="980" cy="1370" r="7"/>
    <circle cx="1050" cy="1360" r="5"/>
  </g>
  
  <!-- Flower Clusters -->
  <g>
    <!-- Pink flowers -->
    <g fill="#FF69B4">
      <circle cx="350" cy="1450" r="5"/>
      <circle cx="360" cy="1440" r="5"/>
      <circle cx="370" cy="1450" r="5"/>
      <circle cx="360" cy="1460" r="5"/>
      <circle cx="360" cy="1450" r="3" fill="#FFD700"/>
    </g>
    <g fill="#FF69B4">
      <circle cx="450" cy="1480" r="5"/>
      <circle cx="460" cy="1470" r="5"/>
      <circle cx="470" cy="1480" r="5"/>
      <circle cx="460" cy="1490" r="5"/>
      <circle cx="460" cy="1480" r="3" fill="#FFD700"/>
    </g>
    <!-- Purple flowers -->
    <g fill="#DA70D6">
      <circle cx="550" cy="1450" r="5"/>
      <circle cx="560" cy="1440" r="5"/>
      <circle cx="570" cy="1450" r="5"/>
      <circle cx="560" cy="1460" r="5"/>
      <circle cx="560" cy="1450" r="3" fill="#FFD700"/>
    </g>
  </g>
  
  <!-- Grass Tufts -->
  <g stroke="#228B22" stroke-width="2" fill="none">
    <path d="M200 1400 L195 1385 L205 1385 Z"/>
    <path d="M210 1410 L205 1395 L215 1395 Z"/>
    <path d="M800 1420 L795 1405 L805 1405 Z"/>
    <path d="M950 1450 L945 1435 L955 1435 Z"/>
  </g>
  
  <!-- More mist at bottom -->
  <rect x="0" y="1300" width="1200" height="300" fill="url(#mistGrad)" opacity="0.4"/>
  
  <!-- Birds -->
  <g fill="#2F4F4F" opacity="0.6">
    <path d="M300 300 Q310 290 320 300 Q310 310 300 300"/>
    <path d="M330 280 Q340 270 350 280 Q340 290 330 280"/>
    <path d="M800 250 Q810 240 820 250 Q810 260 800 250"/>
    <path d="M750 220 Q760 210 770 220 Q760 230 750 220"/>
  </g>
  
  <!-- Additional Lanterns in garden -->
  <g transform="translate(300 1350)">
    <rect x="-2" y="0" width="4" height="30" fill="#654321"/>
    <rect x="-10" y="30" width="20" height="25" fill="#DC143C" rx="3"/>
    <rect x="-7" y="33" width="14" height="19" fill="#ff6b6b" opacity="0.5"/>
    <rect x="-2" y="55" width="4" height="8" fill="#FFD700"/>
    <path d="M-8 63 L8 63 L0 75 Z" fill="#DC143C"/>
  </g>
  
  <g transform="translate(900 1320)">
    <rect x="-2" y="0" width="4" height="30" fill="#654321"/>
    <rect x="-10" y="30" width="20" height="25" fill="#DC143C" rx="3"/>
    <rect x="-7" y="33" width="14" height="19" fill="#ff6b6b" opacity="0.5"/>
    <rect x="-2" y="55" width="4" height="8" fill="#FFD700"/>
    <path d="M-8 63 L8 63 L0 75 Z" fill="#DC143C"/>
  </g>
  
</svg>